<svg width="790" height="225" viewBox="0 0 790 225" fill="none" xmlns="http://www.w3.org/2000/svg">
<path d="M31.9931 102.688V89.1343L36.0225 85.105H14.3494L18.3788 89.1343V102.688C18.3788 123.018 17.463 140.112 2.68872 154.031C30.8942 148.048 31.9931 123.811 31.9931 102.688Z" fill="#0000FF"/>
<path d="M72.9581 158.367V143.165H92.8606L97.3174 147.622V127.598L92.8606 131.383H72.9581V116.975H103.545L108.001 121.37V101.407L103.545 105.192H72.9581V101.956L77.4148 97.6216H56.7186L61.1753 101.956V105.192H40.2959L35.9613 100.735V121.37L40.2959 116.975H61.1753V131.383H40.2959L35.9613 126.926V147.622L40.2959 143.165H61.1753V158.367H19.9049L15.5093 153.91V173.935L19.9049 170.15H108.429L112.763 174.607V153.91L108.429 158.367H72.9581Z" fill="#0000FF"/>
<path d="M173.631 75.4595L177.66 71.4302H155.865L159.895 75.4595C159.895 96.0337 136.878 110.991 136.878 110.991C144.754 110.747 152.996 106.718 159.65 101.04V124.483C159.65 144.813 158.735 161.907 143.96 175.827C172.166 169.844 173.265 145.607 173.265 124.483V79.9162C173.57 78.39 173.631 76.9248 173.57 75.4595H173.631Z" fill="#0000FF"/>
<path d="M246.159 64.4678L242.191 60.4385V79.9747L246.159 76.0064H255.927V123.321C255.927 143.651 255.012 160.745 240.237 174.665C268.443 168.682 269.542 144.444 269.542 123.321V76.0064H280.104L284.072 79.9747V60.4385L280.104 64.4678H246.159Z" fill="#0000FF"/>
<path d="M194.816 57.2056L190.481 52.7489V73.4451L194.816 68.9884H205.561V79.367H189.871L185.414 74.9103V94.935L189.871 91.1498H233.094L237.429 95.6065V74.9103L233.094 79.367H217.343V68.9884H227.966L232.423 73.4451V53.4204L227.966 57.2056H217.343V44.3849L221.739 40.0503H201.104L205.561 44.3849V57.2056H194.816Z" fill="#0000FF"/>
<path d="M246.77 158.61V136.937L242.741 140.966H227.112C223.754 140.966 220.457 140.966 217.282 140.844V126.314H227.905L232.362 130.771V110.746L227.905 114.531H217.282V103.115L221.739 98.7803H201.104L205.561 103.115V114.531H194.816L190.481 110.075V130.71L194.816 126.253H205.561V139.806C194.388 138.219 184.498 134.434 175.829 125.215C181.812 153.421 206.049 154.52 227.173 154.52H242.802L246.831 158.549L246.77 158.61Z" fill="#0000FF"/>
<path d="M402.938 62.5784L398.359 67.1572H379.189V54.6418L383.768 50.063H359.103L363.682 54.6418V67.1572H319.665L315.086 62.5784V85.4725L319.665 80.8937H363.804L363.438 128.452H351.899C348.969 124.484 342.07 107.878 359.958 88.4029C332.18 95.1796 323.267 124.484 344.879 143.166H362.278C362.278 163.618 359.103 171.066 355.868 178.453C376.869 164.9 379.006 143.776 379.128 121.554C379.25 112.213 379.128 89.9902 379.128 80.8937H398.298L402.877 85.4725V62.5784H402.938Z" fill="#0000FF"/>
<path d="M464.111 139.196C462.951 130.893 463.073 121.308 463.073 112.333V60.7453L467.529 56.1665H442.315L446.894 60.7453V112.333C446.894 122.285 446.406 131.625 448.421 141.882C452.755 163.128 465.942 172.346 479.862 172.346C473.879 168.012 466.797 160.563 463.988 139.196H464.111Z" fill="#0000FF"/>
<path d="M528.458 116.178C528.458 87.1179 515.027 73.1983 499.154 70.8784C508.861 79.7308 512.341 89.56 512.341 116.178V148.23L507.762 152.809H533.464L528.458 148.23V116.178Z" fill="#0000FF"/>
<path d="M720.707 139.196C719.547 130.893 719.67 121.308 719.67 112.333V60.7453L724.126 56.1665H698.912L703.491 60.7453V112.333C703.491 122.285 703.003 131.625 705.017 141.882C709.352 163.128 722.539 172.346 736.458 172.346C730.476 168.012 723.394 160.563 720.585 139.196H720.707Z" fill="#0000FF"/>
<path d="M764.298 152.873H790L784.994 148.294V116.242C784.994 87.1819 771.563 73.2623 755.689 70.9424C765.397 79.7947 768.876 89.6239 768.876 116.242V148.294L764.298 152.873Z" fill="#0000FF"/>
<path d="M644.089 76.986C644.333 70.3315 644.211 71.1251 644.211 65.6306L648.79 61.0518H624.613L629.192 65.6306C629.192 72.8956 629.07 75.0934 628.948 76.986H602.025V65.6306L606.604 61.0518H582.427L587.006 65.6306V76.986H571.255L566.676 72.4072V94.935L571.255 90.3561H587.006V167.524H612.22C641.28 167.524 655.2 154.093 657.52 138.22C648.667 147.927 638.838 151.407 612.22 151.407H601.964V90.2951H627.849C626.689 103.604 621.561 116.547 611.365 126.742C630.78 122.164 639.266 109.465 642.562 90.2951H656.238L660.817 94.8739V72.3462L656.238 76.925H643.967L644.089 76.986Z" fill="#0000FF"/>
<path d="M7.26752 53.6637C11.419 54.5184 15.5704 55.0068 19.7829 55.4341C24.3617 55.8615 28.8795 56.1668 33.4583 56.472C34.1909 68.5601 39.8076 80.7702 50.8578 88.7679H62.9459L66.3037 91.9425V74.2378L62.8848 77.6566H54.8261C49.3315 72.8947 46.1569 65.0191 45.4853 57.0825C53.544 57.3878 61.6027 57.5099 69.7225 57.5099C75.7055 57.5099 81.6274 57.4488 87.6104 57.2657C90.4798 57.2046 93.2881 57.0825 96.1575 56.9604C95.7302 57.3267 93.3492 59.2193 87.3662 60.074C86.0841 72.3452 80.8338 84.7996 71.6761 93.1635C89.0756 89.2563 98.4774 73.261 99.7595 56.7773C106.475 56.411 113.191 55.8615 119.906 55.1899C126.683 54.5184 133.46 53.5416 140.297 52.3206L159.406 49.0849L160.078 51.3437C140.603 54.7626 121.127 57.8762 101.408 59.6466C121.249 58.7309 141.091 56.5331 160.871 53.9689L166 71.4295L172.166 50.5501H193.839L180.347 35.7147L193.839 20.8794H172.166L166 0L159.834 20.8794H138.16L149.333 33.1506C150.126 33.1506 150.859 33.1506 151.592 33.1506C155.133 33.0895 158.124 32.8453 160.017 32.6622C161.421 32.5401 162.276 32.418 162.276 32.418C162.276 32.418 156.964 34.1885 151.347 35.9589C150.187 36.3863 149.028 36.7526 147.868 37.1189C145.975 37.7294 144.021 38.2789 142.129 38.8283C134.375 40.9651 126.439 42.7356 118.38 44.1397C112.153 45.2387 105.926 46.2155 99.6374 47.0702C97.7448 30.5254 87.4272 15.8122 68.6236 15.3238C47.6832 14.7132 34.9846 31.1359 33.5194 50.1227C33.5194 50.6722 33.5194 51.1606 33.4583 51.71C29.0016 51.7711 24.4839 51.7711 20.0271 51.71C15.9367 51.5879 11.7853 51.4658 7.81698 50.9164C6.84017 50.7943 5.86335 50.6111 4.88654 50.3669C3.97078 50.1227 2.99396 49.8175 2.44451 49.4512C2.3224 49.3901 2.26135 49.268 2.2003 49.268C2.2003 49.207 2.38346 48.8407 2.68871 48.5965C3.36027 48.047 4.21498 47.4975 5.06969 47.0702C8.67169 45.2387 12.64 43.9566 16.5472 42.6745C20.5155 41.4535 24.4838 40.2935 28.5132 39.3167C24.4228 40.0493 20.3324 40.843 16.303 41.7588C12.2737 42.7356 8.24433 43.7124 4.27603 45.3608C3.29922 45.7881 2.3224 46.2765 1.34559 47.0091C0.857185 47.4365 0.307728 47.8028 0.0635245 48.7796C-0.0585771 49.268 0.00247368 49.8785 0.185626 50.3059C0.429829 50.7332 0.674033 51.0385 0.979287 51.2827C2.0782 52.1374 3.11607 52.5037 4.21498 52.87C5.25284 53.1753 6.29071 53.4805 7.32857 53.6637H7.26752ZM189.504 48.8407H171.861L169.907 44.0787L167.221 37.5463L166.915 36.7526L189.504 48.7796V48.8407ZM188.283 24.3593L179.003 34.5548L178.393 35.2263H167.831L188.283 24.3593ZM166.366 7.75345L170.395 21.3678L170.762 22.5888L166.366 33.2727V7.75345ZM161.665 47.1312L165.389 38.1568V63.676L161.36 50.0617L160.993 48.8407L161.665 47.1312ZM67.952 26.8624C79.4296 27.1066 85.8399 36.2031 87.3051 48.5354C81.3832 49.1459 75.4002 49.6343 69.4173 50.0617C67.2194 50.1838 65.0216 50.3669 62.8238 50.489C52.9335 51.1606 46.1569 45.7271 47.6221 40.7819C50.8578 32.479 57.5734 26.5571 68.0131 26.8013L67.952 26.8624Z" fill="#0000FF"/>
<path d="M276.257 55.2511L280.287 59.2194V39.6831L276.257 43.6514H250.067L246.037 39.6831V59.2194L250.067 55.2511H276.257Z" fill="#0000FF"/>
<path d="M467.53 212.271L465.149 204.945L462.768 212.271H455.014L461.302 216.789L458.86 224.115L465.149 219.597L471.376 224.115L468.995 216.789L475.222 212.271H467.53Z" fill="#0000FF"/>
<path d="M491.767 210.382C491.767 208.978 492.621 207.757 494.087 207.757C495.186 207.757 496.04 208.367 496.101 209.955H496.284V206.353C495.674 205.986 494.88 205.803 494.148 205.803C491.156 205.803 489.63 207.696 489.63 210.565C489.63 212.885 490.546 214.35 492.743 216.548C494.575 218.38 494.636 218.99 494.636 219.723C494.636 220.7 493.842 221.371 492.56 221.371C491.217 221.371 489.874 220.639 489.874 218.746H489.691V222.653C490.363 222.958 491.278 223.264 492.56 223.264C495.247 223.264 496.895 221.921 496.895 219.601C496.895 218.258 496.468 216.976 494.453 214.9C492.194 212.58 491.828 211.359 491.828 210.321L491.767 210.382Z" fill="#0000FF"/>
<path d="M526.078 206.168C526.993 206.168 527.115 206.168 527.115 206.84V218.44C527.115 220.332 526.383 221.309 524.918 221.309C523.269 221.309 522.659 220.332 522.659 218.44V206.84C522.659 206.23 522.781 206.23 523.758 206.168V206.046H519.362V206.168C520.156 206.168 520.4 206.168 520.4 206.84V218.257C520.4 221.797 522.17 223.324 524.979 223.324C527.604 223.324 529.374 221.797 529.374 218.257V206.84C529.374 206.23 529.496 206.168 530.473 206.168V206.046H526.139V206.168H526.078Z" fill="#0000FF"/>
<path d="M553.123 206.168C553.917 206.168 554.161 206.291 554.161 206.84V222.225C554.161 222.835 553.978 222.896 553.123 222.957V223.08H557.519V222.957C556.603 222.957 556.42 222.835 556.42 222.225V206.84C556.42 206.291 556.542 206.23 557.519 206.168V206.046H553.123V206.168Z" fill="#0000FF"/>
<path d="M582.488 210.382C582.488 208.978 583.343 207.757 584.808 207.757C585.907 207.757 586.762 208.367 586.823 209.955H587.006V206.353C586.395 205.986 585.602 205.803 584.869 205.803C581.878 205.803 580.351 207.696 580.351 210.565C580.351 212.885 581.267 214.35 583.465 216.548C585.296 218.38 585.357 218.99 585.357 219.723C585.357 220.7 584.564 221.371 583.282 221.371C581.939 221.371 580.596 220.639 580.596 218.746H580.412V222.653C581.084 222.958 582 223.264 583.282 223.264C585.968 223.264 587.616 221.921 587.616 219.601C587.616 218.258 587.189 216.976 585.174 214.9C582.915 212.58 582.549 211.359 582.549 210.321L582.488 210.382Z" fill="#0000FF"/>
<path d="M618.569 220.393C618.569 220.943 618.386 221.065 617.837 221.065H613.38V217.463H615.944C616.433 217.463 616.555 217.646 616.555 218.073V218.806H616.677V214.227H616.555V214.96C616.555 215.387 616.372 215.57 615.944 215.57H613.38V208H617.593C618.142 208 618.325 208.122 618.325 208.672V209.404H618.447V206.046H610.022V206.168C610.633 206.168 611.06 206.168 611.06 206.84V222.286C611.06 222.896 610.633 222.896 610.022 222.957V223.08H618.691V219.722H618.569V220.454V220.393Z" fill="#0000FF"/>
<path d="M641.524 206.168C642.318 206.168 642.562 206.291 642.562 206.84V222.225C642.562 222.835 642.379 222.896 641.524 222.957V223.08H645.92V222.957C645.004 222.957 644.821 222.835 644.821 222.225V206.84C644.821 206.291 644.943 206.23 645.92 206.168V206.046H641.524V206.168Z" fill="#0000FF"/>
<path d="M150.798 206.168C151.409 206.168 151.836 206.168 151.836 206.84V215.692H147.379V206.84C147.379 206.23 147.685 206.23 148.478 206.168V206.046H144.083V206.168C144.693 206.168 145.12 206.168 145.12 206.84V222.286C145.12 222.896 144.693 222.896 144.083 222.957V223.08H148.478V222.957C147.685 222.957 147.379 222.957 147.379 222.286V217.707H151.836V222.286C151.836 222.896 151.409 222.896 150.798 222.957V223.08H155.194V222.957C154.4 222.957 154.156 222.957 154.156 222.286V206.84C154.156 206.23 154.4 206.23 155.194 206.168V206.046H150.798V206.168Z" fill="#0000FF"/>
<path d="M182.666 205.743C179.309 205.743 177.66 208.552 177.66 214.412C177.66 220.273 179.309 223.265 182.666 223.265C186.024 223.265 187.673 220.395 187.673 214.412C187.673 208.429 186.024 205.743 182.666 205.743ZM182.666 221.311C180.835 221.311 180.102 219.419 180.102 214.412C180.102 209.406 180.774 207.636 182.666 207.636C184.559 207.636 185.231 209.467 185.231 214.412C185.231 219.358 184.498 221.311 182.666 221.311Z" fill="#0000FF"/>
<path d="M212.765 210.382C212.765 208.978 213.619 207.757 215.085 207.757C216.184 207.757 217.038 208.367 217.099 209.955H217.282V206.353C216.672 205.986 215.878 205.803 215.146 205.803C212.154 205.803 210.628 207.696 210.628 210.565C210.628 212.885 211.544 214.35 213.742 216.548C215.573 218.38 215.634 218.99 215.634 219.723C215.634 220.7 214.84 221.371 213.558 221.371C212.215 221.371 210.872 220.639 210.872 218.746H210.689V222.653C211.361 222.958 212.276 223.264 213.558 223.264C216.245 223.264 217.893 221.921 217.893 219.601C217.893 218.258 217.466 216.976 215.451 214.9C213.192 212.58 212.826 211.359 212.826 210.321L212.765 210.382Z" fill="#0000FF"/>
<path d="M247.136 206.168C247.747 206.168 248.174 206.168 248.174 206.84V215.692H243.718V206.84C243.718 206.23 244.023 206.23 244.816 206.168V206.046H240.421V206.168C241.031 206.168 241.459 206.168 241.459 206.84V222.286C241.459 222.896 241.031 222.896 240.421 222.957V223.08H244.816V222.957C244.023 222.957 243.718 222.957 243.718 222.286V217.707H248.174V222.286C248.174 222.896 247.747 222.896 247.136 222.957V223.08H251.532V222.957C250.738 222.957 250.494 222.957 250.494 222.286V206.84C250.494 206.23 250.738 206.23 251.532 206.168V206.046H247.136V206.168Z" fill="#0000FF"/>
<path d="M274.182 206.168C274.975 206.168 275.22 206.291 275.22 206.84V222.225C275.22 222.835 275.036 222.896 274.182 222.957V223.08H278.577V222.957C277.662 222.957 277.478 222.835 277.478 222.225V206.84C277.478 206.291 277.6 206.23 278.577 206.168V206.046H274.182V206.168Z" fill="#0000FF"/>
<path d="M311.178 205.743L308.37 213.497L305.562 205.743C305.134 205.926 304.035 205.987 303.242 205.987H301.227V206.109C301.838 206.109 302.265 206.109 302.265 206.72V222.166C302.265 222.776 301.838 222.776 301.227 222.837V222.959H305.44V222.837C304.646 222.837 304.524 222.837 304.524 222.166V208.429L308.248 218.564H308.37C308.37 218.259 308.553 217.709 308.736 217.343L312.155 208.429V222.166C312.155 222.776 311.667 222.776 311.117 222.837V222.959H315.391V222.837C314.78 222.837 314.353 222.837 314.353 222.166V206.72C314.353 206.109 314.719 206.109 315.391 206.109V205.987H313.315C312.827 205.987 311.667 205.926 311.239 205.743H311.178Z" fill="#0000FF"/>
<path d="M349.396 222.226L344.879 205.986H343.108L338.651 222.226C338.529 222.653 338.346 222.836 337.736 222.897V223.02H341.521V222.897C341.032 222.897 340.605 222.897 340.605 222.47C340.605 222.47 340.605 222.348 340.605 222.287L341.338 219.54H346.161L346.893 222.287C346.893 222.287 346.893 222.47 346.893 222.531C346.893 222.958 346.466 222.958 345.978 222.958V223.081H350.19V222.958C349.519 222.958 349.335 222.653 349.274 222.287L349.396 222.226ZM341.948 217.586L343.902 210.382L345.794 217.586H342.009H341.948Z" fill="#0000FF"/>
<path d="M377.663 221.31C375.526 221.31 374.427 219.54 374.427 214.961C374.427 210.382 375.343 207.757 377.48 207.757C378.945 207.757 379.372 208.673 379.433 210.382H379.555V206.231C378.945 205.986 378.579 205.803 377.419 205.803C374 205.803 371.985 209.222 371.985 214.961C371.985 220.7 373.878 223.325 376.991 223.325C379.311 223.325 380.044 221.432 380.105 219.601H379.983C379.8 220.944 378.884 221.31 377.663 221.31Z" fill="#0000FF"/>
<path d="M409.226 206.168C409.837 206.168 410.264 206.168 410.264 206.84V215.692H405.807V206.84C405.807 206.23 406.113 206.23 406.906 206.168V206.046H402.51V206.168C403.121 206.168 403.548 206.168 403.548 206.84V222.286C403.548 222.896 403.121 222.896 402.51 222.957V223.08H406.906V222.957C406.113 222.957 405.807 222.957 405.807 222.286V217.707H410.264V222.286C410.264 222.896 409.837 222.896 409.226 222.957V223.08H413.622V222.957C412.828 222.957 412.584 222.957 412.584 222.286V206.84C412.584 206.23 412.828 206.23 413.622 206.168V206.046H409.226V206.168Z" fill="#0000FF"/>
<path d="M436.333 206.168C437.126 206.168 437.37 206.291 437.37 206.84V222.225C437.37 222.835 437.187 222.896 436.333 222.957V223.08H440.728V222.957C439.812 222.957 439.629 222.835 439.629 222.225V206.84C439.629 206.291 439.751 206.23 440.728 206.168V206.046H436.333V206.168Z" fill="#0000FF"/>
</svg>
